<svg width="180" height="115" viewBox="0 0 180 115" fill="none" xmlns="http://www.w3.org/2000/svg">
<path d="M46.0922 33.1328L59.1297 72.7251C60.2504 76.1299 61.0109 77.184 62.4102 77.8385H61.6621C58.5016 77.8385 55.7322 75.7811 54.7669 72.7758C54.7577 72.7497 54.75 72.722 54.7408 72.6959L49.2219 55.9282C49.225 57.437 48.797 58.6094 48.0504 59.5297C46.7573 61.1246 44.5836 61.9389 42.2036 62.6165C39.8236 63.2941 37.2189 63.8303 35.036 64.7876C32.8592 65.7417 31.1166 67.0892 30.3515 69.4093L29.5525 71.8416C29.3078 72.5868 29.1246 73.1307 28.9044 73.8605C28.3041 75.8902 28.1717 77.2823 29.3555 77.8354H25.4115C26.8093 77.1824 27.6021 76.1284 28.7197 72.7328L41.3862 34.193C40.9197 33.6983 40.4163 33.3956 39.8467 33.1282H46.0907L46.0922 33.1328ZM31.1828 66.8849C32.1388 65.751 33.415 64.9428 34.8297 64.322C37.085 63.3341 39.7097 62.7978 42.062 62.1279C44.4158 61.458 46.4832 60.6529 47.6517 59.2117C49.3081 57.0744 48.5769 54.0322 47.4454 50.5336L43.3844 38.1925C42.8194 36.4778 42.3068 35.3976 41.7726 34.6647L31.1828 66.8849Z" fill="white" stroke="white" stroke-miterlimit="10"/>
<path d="M93.0019 20.0235C94.2812 21.0038 95.0263 22.5326 95.4004 24.3411C96.3548 29.1503 96.1023 32.7656 93.2267 37.1415C92.2368 38.6365 90.9483 39.9748 89.3673 41.0965C85.4464 43.8314 80.8973 44.6227 76.0327 44.8532C73.6358 44.9039 71.2451 44.721 68.9374 44.4122V80.9115C68.9374 84.2211 70.2321 85.3719 71.6315 86.0249H69.955C67.2241 86.0249 64.7779 84.0382 64.7779 79.1491V46.9428C64.7779 45.6721 64.7702 44.6089 64.7471 43.7116C60.606 42.8957 56.4172 41.7403 52.3223 40.5587C46.7958 38.9654 41.8172 37.4365 37.0096 36.4609C34.6342 35.9784 32.2897 35.6327 30.0375 35.5252C29.0014 35.476 27.9762 35.4775 26.9694 35.5421C25.881 35.6112 24.8157 35.7526 23.7843 35.9815C15.6915 38.1464 17.2725 42.7682 15.3266 44.4598C14.6708 45.0299 13.7687 45.2926 12.9405 44.9008C11.9121 44.4137 11.5242 43.2122 11.9522 42.1597C13.196 39.1067 17.6034 36.5561 23.6473 35.3423C24.7203 35.1211 25.8194 34.992 26.9355 34.9382C27.9685 34.8891 29.0153 34.9013 30.0667 34.9628C32.3512 35.0949 34.7235 35.4591 37.1127 35.9508C41.9435 36.9433 46.9512 38.4691 52.4624 40.0686C56.5188 41.2455 60.6476 42.3948 64.7286 43.2091C64.6147 40.0301 64.2499 39.1881 63.1846 38.6903C65.4198 38.6903 68.3294 36.7298 68.9344 35.1195V43.9205C71.2435 44.2324 73.6312 44.4168 76.0189 44.363C80.6941 44.2401 85.0122 43.3321 89.0548 40.6632C90.5804 39.5753 91.8165 38.2785 92.7525 36.8342C94.2396 34.5372 94.7969 32.1526 94.8169 30.1213C94.8138 28.2222 94.4998 25.5472 91.5148 23.8263C90.4526 23.2317 89.3904 22.8015 89.7475 21.0576C89.9492 20.4415 90.4187 19.9667 91.0037 19.7454C91.2608 19.6502 91.5148 19.6087 91.7657 19.6148C92.1829 19.624 92.5924 19.7685 92.9973 20.022L93.0019 20.0235Z" fill="white" stroke="white" stroke-miterlimit="10"/>
<path d="M112.132 77.84H93.9794V70.9228C93.9256 71.0918 93.8671 71.2608 93.8039 71.4344C93.3868 72.5591 92.754 73.6884 91.8827 74.6964C91.0083 75.7058 89.9908 76.4833 88.907 77.018C87.6262 77.6495 86.4485 77.8493 85.5926 77.8969C85.4433 77.903 85.277 77.9122 85.1 77.9199C83.8854 77.9691 82.7169 77.8877 81.4515 77.5834C80.2815 77.2792 79.0608 76.743 77.9216 75.8795C75.0259 73.6485 73.9114 70.7445 73.9114 66.2733V60.4408C73.9114 54.0828 73.7189 52.8429 72.3196 52.1868C74.5548 52.1868 77.4659 50.2278 78.0709 48.6176V66.4792C78.0694 71.6634 79.6365 77.0948 85.548 77.0948C86.3254 77.0518 87.3968 76.892 88.5822 76.342C89.5844 75.8749 90.5465 75.1865 91.3886 74.2616C92.2306 73.3397 92.8556 72.2933 93.279 71.2347C93.7762 69.9855 93.9286 68.8792 93.9625 68.1125L93.981 60.4424C93.981 54.0844 93.7886 52.8444 92.3892 52.1884C94.6245 52.1884 97.5355 50.2278 98.1405 48.6191V72.7266C98.1405 73.8175 98.2806 74.6733 98.5192 75.354C98.9888 76.6938 100.288 77.565 101.71 77.565C103.131 77.565 104.431 76.6938 104.9 75.3555C105.139 74.6749 105.28 73.8175 105.28 72.7266V44.9576C105.28 38.5997 105.091 37.3597 103.69 36.7036C105.925 36.7036 108.835 34.7431 109.44 33.1344V72.7266C109.44 76.0347 110.736 77.1839 112.134 77.84H112.132Z" fill="white" stroke="white" stroke-miterlimit="10"/>
<path d="M138.558 48.6176H134.616C136.014 49.2721 135.575 51.0959 134.699 53.7586L127.17 76.6692C127.134 76.7752 126.985 76.7752 126.95 76.6692L119.409 53.7586C118.533 51.0959 118.989 49.2721 120.388 48.6176H111.743C113.142 49.2721 113.903 50.3277 115.024 53.731L122.439 76.2636C122.501 76.451 122.588 76.6277 122.702 76.7875C122.741 76.8413 122.781 76.8951 122.819 76.9489C122.927 77.0964 123.055 77.227 123.196 77.3407C123.397 77.5005 123.604 77.6495 123.803 77.8108C123.925 77.9092 124.043 78.009 124.162 78.1104C124.239 78.1765 124.322 78.2349 124.405 78.2933C125.362 78.9586 125.813 80.2508 125.27 81.4308C122.927 86.515 120.359 89.9921 117.828 92.2338C114.728 94.9811 111.694 95.883 109.164 95.6556C106.232 95.2853 104.289 93.7565 104.289 91.7913C104.289 90.3255 104.923 89.4482 105.536 88.428C105.916 87.7488 106.316 87.1988 106.278 86.4182C106.216 85.1675 105.076 84.2963 103.838 84.4992C102.599 84.702 102.165 85.8436 101.874 87.102C100.811 91.7621 104.397 95.6571 109.118 96.1642C111.805 96.4054 114.987 95.4374 118.169 92.6164C121.124 89.9967 124.089 85.7806 126.7 79.4303C127.137 78.4669 127.37 77.7033 127.71 76.6692L129.328 71.7463L135.249 53.731C136.369 50.3261 137.162 49.2721 138.56 48.6176H138.558Z" fill="white" stroke="white" stroke-miterlimit="10"/>
<path d="M139.325 58.6093C138.852 56.8946 139.448 54.112 141.676 51.7597C143.609 49.7177 146.285 48.6191 149.51 48.6191C152.986 48.5976 157.147 49.9789 158.902 53.7156C159.649 55.2951 159.901 57.331 159.901 59.3699V72.7281C159.901 76.0377 161.196 77.1885 162.595 77.8416H159.901C157.604 77.8416 155.742 75.9824 155.742 73.69V72.9878C155.683 73.1353 155.617 73.2859 155.545 73.4349C155.13 74.283 154.522 75.0636 153.716 75.7458C152.906 76.4311 152.001 76.9289 151.122 77.29C150.517 77.5389 149.958 77.7109 149.498 77.8354C149.019 77.966 148.554 78.0659 148.12 78.1412C147.042 78.3286 145.962 78.3993 144.967 78.344C144.688 78.3286 144.405 78.3025 144.117 78.2641C143.365 78.1627 142.598 78.0106 141.856 77.7478C139.263 76.8075 137.892 74.8331 137.844 71.9599C137.839 70.6508 138.121 69.4754 138.697 68.3599C138.712 68.3307 138.728 68.3015 138.743 68.2708C139.279 67.2613 140.107 66.4055 141.179 65.6925C142.079 65.0933 143.097 64.6278 144.217 64.1806C144.467 64.0808 144.719 63.984 144.976 63.8856C145.731 63.5968 146.385 63.3571 147.389 63.0068C148.323 62.6795 149.513 62.2754 150.495 61.8959C151.499 61.5087 152.41 61.1046 153.182 60.6406C153.586 60.3978 153.937 60.1474 154.238 59.8877C154.572 59.6004 154.832 59.31 155.035 59.0196C155.286 58.6631 155.438 58.3205 155.535 58.0101C155.655 57.6275 155.686 57.2972 155.698 57.1297C155.754 56.4383 155.642 55.5241 155.541 54.8649C155.401 53.9399 155.117 53.0227 154.625 52.1745C154.139 51.3356 153.479 50.6319 152.658 50.1033C151.61 49.4457 150.575 49.1184 149.51 49.1184C147.212 49.1184 144.17 50.1709 143.403 52.0516C142.67 53.8508 142.978 54.8972 143.191 56.2278C143.323 57.0621 143.477 58.0577 143.097 58.8705C142.752 59.5281 142.062 59.9768 141.268 59.9768C140.372 59.9768 139.55 59.4252 139.324 58.6078L139.325 58.6093ZM155.42 59.2915C155.187 59.6127 154.896 59.9246 154.535 60.2319C154.208 60.5084 153.836 60.7696 153.414 61.0247C152.61 61.5087 151.682 61.9297 150.677 62.3461C149.641 62.7747 148.569 63.1835 147.616 63.5891C146.711 63.9747 145.975 64.3297 145.36 64.6877C145.13 64.8214 144.912 64.9581 144.702 65.0995C143.749 65.7448 143.05 66.4423 142.561 67.1553C141.988 67.9881 141.754 68.7609 141.605 69.4293C141.6 69.4493 141.596 69.4708 141.593 69.4907C141.162 71.6372 141.606 73.6746 143.146 75.4385C143.546 75.8103 144.042 76.1437 144.615 76.3911C144.832 76.4848 145.052 76.5678 145.275 76.6431C146.085 76.912 147.01 77.081 148.024 77.0795C148.429 77.0795 148.863 77.0503 149.319 76.9842C149.756 76.9212 150.289 76.8044 150.866 76.6093C151.705 76.325 152.57 75.8964 153.34 75.2879C154.107 74.6825 154.684 73.9742 155.08 73.2029C155.832 71.6741 155.792 69.4339 155.745 67.4042V58.7722C155.658 58.9351 155.541 59.121 155.42 59.2946V59.2915Z" fill="white" stroke="white" stroke-miterlimit="10"/>
</svg>
