<svg width="376" height="136" viewBox="10 0 376 140" fill="none" xmlns="http://www.w3.org/2000/svg">
<path d="M306.267 119.862V112.959H307.18V119.862H306.267Z" fill="white"/>
<path d="M320.032 119.862L317.493 114.171C317.517 114.96 317.526 115.851 317.526 116.56V119.862H316.613V112.959H317.899L320.463 118.69C320.445 117.91 320.438 116.989 320.438 116.28V112.959H321.333L321.342 119.862H320.032Z" fill="white"/>
<path d="M335.663 116.331C335.663 118.392 334.65 119.621 333.324 119.824C333.033 119.864 332.902 119.864 332.593 119.864H330.776V112.961H332.626C332.933 112.961 333.066 112.961 333.357 113.001C334.685 113.193 335.663 114.242 335.663 116.331ZM334.683 116.331C334.683 114.882 334.11 114.042 333.197 113.882C333.015 113.842 332.815 113.833 332.542 113.833H331.687V118.983H332.508C332.79 118.983 332.981 118.983 333.164 118.943C334.085 118.783 334.683 117.863 334.683 116.331Z" fill="white"/>
<path d="M344.787 119.862V112.959H345.7V119.862H344.787Z" fill="white"/>
<path d="M356.129 117.581L355.507 119.862H354.536L356.593 112.959H357.77L359.769 119.862H358.783L358.161 117.581H356.129ZM357.921 116.712L357.166 113.871L356.369 116.712H357.921Z" fill="white"/>
<path d="M208.238 59.3539V59.3583C208.238 60.761 208.1 62.0482 207.853 63.233C207.305 65.8539 206.21 67.9769 204.79 69.7797C202.722 72.4051 199.984 74.3613 197.265 76.2509C195.988 77.1378 194.717 78.0115 193.52 78.9296L206.767 98.4341C208.82 101.455 210.772 102.804 212.149 103.451H209.801C206.94 103.451 204.264 102.033 202.656 99.6656L190.423 81.6572C190.223 81.8683 190.028 82.0818 189.841 82.3018C187.833 84.6382 186.507 87.4747 186.507 91.4561H186.503V98.4096C186.503 101.673 187.776 102.809 189.153 103.454H179.761C181.139 102.809 182.411 101.673 182.411 98.4096V64.4023C182.411 61.1389 181.136 60.003 179.761 59.3583H189.153C187.776 60.003 186.503 61.1389 186.503 64.4023V87.4725C187.083 85.3073 188.131 83.5223 189.459 81.9751C191.527 79.5676 194.262 77.7269 196.978 75.8396C199.693 73.9523 202.387 72.0227 204.395 69.4707C205.628 67.9035 206.605 66.1051 207.178 63.9266C207.769 61.3612 206.776 59.9119 205.59 59.3583H208.24L208.238 59.3539Z" fill="white" stroke="white" stroke-width="0.5" stroke-miterlimit="10"/>
<path d="M257.56 74.7103C254.357 74.3257 250.67 76.0019 247.795 79.8588C246.993 80.9436 246.376 82.1529 245.983 83.4111V74.6259C245.388 76.2153 242.527 78.1471 240.328 78.1471C241.705 78.794 241.891 80.0166 241.891 86.2877V98.4052C241.891 99.1833 241.818 99.8413 241.689 100.401C241.338 101.915 239.97 102.973 238.417 102.973C236.865 102.973 235.496 101.915 235.145 100.401C235.017 99.8435 234.943 99.1855 234.943 98.4052V85.2295C234.943 83.2199 234.697 81.2104 233.962 79.652C232.233 75.9685 228.142 74.6059 224.721 74.6259C221.549 74.6259 218.917 75.7107 217.016 77.7247C214.823 80.0455 214.237 82.7887 214.704 84.4804C214.926 85.2851 215.734 85.8297 216.616 85.8297C217.396 85.8297 218.075 85.3874 218.415 84.7382C218.788 83.938 218.637 82.9554 218.506 82.1329C218.297 80.8191 217.993 79.7876 218.715 78.0137C219.468 76.1597 222.46 75.1216 224.721 75.1216C225.77 75.1216 226.789 75.4439 227.82 76.093C228.626 76.6154 229.277 77.3068 229.755 78.136C230.239 78.9718 230.519 79.8766 230.656 80.788C230.754 81.4393 230.863 82.3419 230.81 83.0221C230.796 83.1866 230.765 83.5134 230.647 83.8913C230.554 84.1958 230.403 84.5337 230.157 84.8872C229.957 85.1717 229.699 85.4585 229.372 85.743C229.075 85.9987 228.731 86.2454 228.333 86.4833C227.573 86.9412 226.678 87.3391 225.69 87.7215C224.723 88.0972 223.553 88.4951 222.633 88.8174C221.647 89.1642 221.003 89.4021 220.261 89.6866C220.008 89.7822 219.759 89.88 219.515 89.9778C218.411 90.418 217.411 90.8782 216.525 91.4695C215.472 92.1719 214.659 93.0167 214.13 94.0126C214.115 94.0415 214.099 94.0704 214.084 94.0993C213.52 95.1996 213.242 96.3578 213.246 97.6494C213.293 100.486 214.641 102.433 217.194 103.36C217.922 103.618 218.677 103.769 219.417 103.869C219.699 103.907 219.979 103.932 220.252 103.947C221.229 104 222.293 103.932 223.353 103.747C223.782 103.671 224.237 103.574 224.71 103.445C225.161 103.32 225.712 103.154 226.307 102.907C227.171 102.549 228.062 102.058 228.857 101.384C229.652 100.71 230.25 99.9391 230.659 99.1032C230.73 98.9543 230.794 98.8076 230.852 98.6609V99.3544C230.852 100.486 231.309 101.509 232.051 102.249C232.791 102.991 233.815 103.449 234.943 103.449H241.101C243.822 103.449 246.005 101.224 245.983 98.5008V87.6615C245.916 83.8068 247.564 80.5435 249.601 78.5895C250.734 77.5335 252.202 76.6777 254.197 77.2134C255.228 77.4913 255.718 77.9915 256.471 78.4049C257.371 78.8718 258.413 79.2252 259.35 78.6339C259.912 78.2738 260.285 77.6425 260.285 76.9244C260.285 75.335 258.979 74.8859 257.56 74.7103ZM230.199 98.8743C229.81 99.6345 229.244 100.333 228.488 100.931C227.731 101.529 226.88 101.953 226.056 102.233C225.488 102.424 224.963 102.54 224.532 102.602C224.084 102.667 223.657 102.696 223.26 102.696C222.262 102.7 221.352 102.531 220.554 102.267C220.334 102.193 220.119 102.111 219.906 102.018C219.341 101.775 218.855 101.444 218.46 101.079C216.947 99.3389 216.509 97.3293 216.934 95.213C216.936 95.193 216.94 95.173 216.945 95.153C217.091 94.4927 217.322 93.7325 217.887 92.91C218.369 92.2075 219.055 91.5184 219.992 90.8826C220.199 90.7425 220.414 90.6069 220.639 90.4758C221.243 90.1246 221.969 89.7733 222.86 89.3932C223.795 88.9931 224.85 88.5885 225.87 88.1661C226.858 87.7548 227.771 87.3391 228.562 86.8634C228.977 86.6122 229.344 86.3544 229.663 86.0809C230.019 85.7786 230.305 85.4696 230.534 85.1539C230.654 84.9828 230.77 84.8005 230.854 84.6382V93.1523C230.901 95.1552 230.941 97.3648 230.199 98.8743Z" fill="white" stroke="white" stroke-width="0.5" stroke-miterlimit="10"/>
<path d="M268.768 79.2163V98.4052C268.768 101.669 270.041 102.804 271.418 103.449H262.027C263.404 102.804 264.677 101.671 264.677 98.4052V86.2877C264.677 80.0166 264.488 78.794 263.113 78.1471C265.312 78.1471 268.173 76.2131 268.768 74.6236V79.2141V79.2163Z" fill="white" stroke="white" stroke-width="0.5" stroke-miterlimit="10"/>
<path d="M298.815 68.0569C299.925 68.2637 300.698 69.2751 300.525 70.3933C300.401 71.2002 299.821 71.8249 299.09 72.0427C298.206 72.3006 297.282 71.8471 296.378 71.6715C295.803 71.5981 295.183 71.6604 294.557 71.9627C293.075 72.7141 292.68 74.3258 292.331 75.6573C297.193 77.5358 300.316 81.675 300.316 86.2343C300.316 92.6454 294.234 97.8428 286.733 97.8428C283.495 97.8428 280.363 96.8536 277.902 95.0529C277.786 95.113 277.666 95.1796 277.542 95.2552C276.329 96.1355 275.754 97.5182 275.923 99.0566C276.494 101.789 280.909 103.222 285.84 104.799C289.445 105.952 297.631 107.07 299.308 111.988C299.859 113.635 299.712 115.342 298.844 116.945C298.308 117.91 297.662 118.741 296.84 119.424C295.969 120.137 294.703 120.697 293.59 121.142C288.35 123.167 282.087 122.827 278.071 121.253C276.847 120.771 275.965 120.248 274.905 119.33C274.286 118.757 273.808 118.141 273.448 117.521C272.604 116.034 272.315 113.833 272.709 112.181C273.004 110.965 273.535 110.147 274.939 109.971C276.06 109.971 276.969 110.881 276.969 112.003C276.958 112.919 276.223 113.608 275.754 114.377C274.521 116.458 274.408 118.759 277.451 120.435C281.371 122.298 288.497 122.809 294.081 120.393C295.238 119.868 295.816 119.461 296.174 119.195C297.675 118.083 298.637 116.116 297.742 114.466C295.436 111.259 288.175 110.256 280.572 107.311C278.406 106.368 275.949 104.859 275.045 102.429C274.39 100.664 274.463 98.4452 275.634 96.6068C276.129 95.8288 276.678 95.213 277.269 94.8284C277.331 94.7884 277.393 94.7506 277.455 94.715C274.705 92.5187 273.146 89.4488 273.146 86.2321C273.146 79.821 279.228 74.6236 286.727 74.6236C288.477 74.6236 290.21 74.9126 291.829 75.475C291.902 75.0304 292.089 74.0546 292.389 73.1898C293.166 70.9935 294.51 68.9439 296.844 68.2214C297.278 68.0903 297.742 68.0036 298.197 68.0013C298.404 68.0013 298.61 68.0169 298.808 68.0547L298.815 68.0569ZM282.035 76.0464C277.24 78.2894 275.454 84.6671 278.048 90.2935C280.643 95.9199 286.636 98.6631 291.431 96.4201C296.229 94.1771 298.013 87.7993 295.418 82.1729C293.495 78.0026 289.597 75.2661 285.581 75.2661C284.339 75.2661 283.135 75.5306 282.035 76.0464Z" fill="white" stroke="white" stroke-width="0.5" stroke-miterlimit="10"/>
<path d="M346.627 74.7103C343.424 74.3257 339.736 76.0019 336.862 79.8588C336.058 80.9436 335.443 82.1529 335.05 83.4111V74.6259C334.454 76.2153 331.591 78.1471 329.394 78.1471C330.769 78.794 330.958 80.0166 330.958 86.2877V98.4052C330.958 99.1855 330.885 99.8413 330.756 100.401C330.405 101.915 329.037 102.973 327.484 102.973C325.931 102.973 324.563 101.915 324.212 100.401C324.083 99.8435 324.01 99.1855 324.01 98.4052V85.2295C324.01 83.2199 323.761 81.2104 323.026 79.652C321.3 75.9685 317.206 74.6059 313.788 74.6259C310.614 74.6259 307.984 75.7107 306.08 77.7247C303.89 80.0455 303.304 82.7887 303.768 84.4804C303.99 85.2851 304.799 85.8297 305.681 85.8297C306.462 85.8297 307.142 85.3874 307.48 84.7382C307.853 83.938 307.702 82.9554 307.573 82.1329C307.364 80.8191 307.06 79.7876 307.782 78.0137C308.535 76.1597 311.527 75.1216 313.788 75.1216C314.836 75.1216 315.854 75.4439 316.884 76.093C317.693 76.6154 318.344 77.3068 318.821 78.136C319.303 78.9718 319.585 79.8766 319.721 80.788C319.819 81.4393 319.93 82.3419 319.874 83.0221C319.861 83.1866 319.832 83.5134 319.714 83.8913C319.619 84.1958 319.468 84.5337 319.223 84.8872C319.023 85.1717 318.766 85.4585 318.437 85.743C318.142 85.9987 317.797 86.2454 317.397 86.4833C316.638 86.9412 315.743 87.3391 314.754 87.7215C313.788 88.0972 312.617 88.4951 311.7 88.8174C310.712 89.1642 310.07 89.4021 309.328 89.6866C309.075 89.7822 308.826 89.88 308.579 89.9778C307.477 90.418 306.476 90.8782 305.592 91.4695C304.537 92.1719 303.724 93.0167 303.197 94.0126C303.182 94.0415 303.166 94.0704 303.151 94.0993C302.584 95.1996 302.309 96.3578 302.311 97.6494C302.36 100.486 303.708 102.433 306.258 103.36C306.989 103.618 307.742 103.769 308.484 103.869C308.766 103.907 309.046 103.932 309.319 103.947C310.296 104 311.36 103.932 312.42 103.747C312.848 103.671 313.304 103.574 313.775 103.445C314.228 103.32 314.779 103.154 315.374 102.907C316.238 102.549 317.129 102.058 317.924 101.384C318.717 100.71 319.314 99.9391 319.723 99.1032C319.796 98.9543 319.861 98.8076 319.919 98.6609V99.3544C319.919 100.486 320.376 101.509 321.116 102.249C321.855 102.991 322.879 103.449 324.01 103.449H330.167C332.888 103.449 335.07 101.224 335.05 98.5008V87.6615C334.981 83.8068 336.629 80.5435 338.666 78.5895C339.799 77.5335 341.269 76.6777 343.261 77.2134C344.294 77.4913 344.785 77.9915 345.538 78.4049C346.438 78.8718 347.48 79.2252 348.417 78.6339C348.979 78.2738 349.35 77.6425 349.35 76.9244C349.35 75.335 348.044 74.8859 346.627 74.7103ZM319.266 98.8743C318.877 99.6345 318.308 100.333 317.555 100.931C316.798 101.529 315.947 101.953 315.121 102.233C314.554 102.424 314.03 102.54 313.599 102.602C313.15 102.667 312.724 102.696 312.326 102.696C311.327 102.7 310.416 102.531 309.621 102.267C309.401 102.193 309.183 102.111 308.97 102.018C308.408 101.775 307.922 101.444 307.526 101.079C306.011 99.3389 305.574 97.3293 305.998 95.213C306.003 95.193 306.007 95.173 306.011 95.153C306.158 94.4927 306.389 93.7325 306.951 92.91C307.433 92.2075 308.122 91.5184 309.059 90.8826C309.266 90.7425 309.481 90.6069 309.705 90.4758C310.31 90.1246 311.034 89.7733 311.924 89.3932C312.862 88.9931 313.917 88.5885 314.936 88.1661C315.925 87.7548 316.838 87.3391 317.628 86.8634C318.044 86.6122 318.41 86.3544 318.73 86.0809C319.086 85.7786 319.372 85.4696 319.601 85.1539C319.719 84.9828 319.834 84.8005 319.919 84.6382H319.921V93.1523C319.967 95.1552 320.005 97.3648 319.266 98.8743Z" fill="white" stroke="white" stroke-width="0.5" stroke-miterlimit="10"/>
<path d="M47.8385 59.3094L60.6905 98.4475C61.7945 101.813 62.5452 102.856 63.9246 103.503H63.1872C60.0708 103.503 57.3409 101.468 56.3902 98.4986C56.3813 98.4719 56.3725 98.4452 56.3658 98.4208L50.926 81.8461C50.9282 83.3378 50.5062 84.496 49.771 85.4074C48.496 86.9835 46.3525 87.7882 44.0069 88.4573C41.6613 89.1264 39.0936 89.6577 36.9412 90.6025C34.7955 91.5451 33.0763 92.8766 32.3233 95.1708L31.5347 97.576C31.2926 98.3119 31.1127 98.8498 30.895 99.5723C30.3019 101.58 30.1731 102.956 31.3393 103.503H27.4521C28.8293 102.856 29.6112 101.815 30.7129 98.4586L43.2006 60.3609C42.7408 59.8719 42.2455 59.5718 41.6835 59.3094H47.8385ZM33.1407 92.6721C34.0825 91.5517 35.3419 90.7515 36.7368 90.1401C38.9603 89.1642 41.548 88.6329 43.867 87.9705C46.1882 87.308 48.225 86.5122 49.3778 85.0873C51.0104 82.9732 50.2908 79.9677 49.1735 76.5087L45.1686 64.309C44.6133 62.615 44.1069 61.5458 43.5782 60.8211L33.1385 92.6699L33.1407 92.6721Z" fill="white" stroke="white" stroke-miterlimit="10"/>
<path d="M94.0844 46.3516C95.3461 47.3208 96.0813 48.8325 96.45 50.6198C97.3896 55.3747 97.143 58.9471 94.3065 63.273C93.3314 64.7513 92.0609 66.074 90.5016 67.1811C86.6366 69.8842 82.152 70.6667 77.3564 70.8935C74.9952 70.9424 72.6362 70.7623 70.3617 70.4578V106.537C70.3617 109.809 71.6389 110.945 73.0183 111.592H71.3657C68.6736 111.592 66.2613 109.629 66.2613 104.796V72.9608C66.2613 71.7048 66.2547 70.6534 66.2302 69.7664C62.1476 68.9595 58.0184 67.8168 53.9824 66.6498C48.5337 65.0737 43.6271 63.5643 38.887 62.5995C36.5458 62.1238 34.2335 61.7792 32.0145 61.6747C30.9927 61.6258 29.9821 61.628 28.9914 61.6903C27.9186 61.7592 26.8679 61.8992 25.8506 62.1238C17.872 64.2623 19.4313 68.8327 17.5121 70.5044C16.8658 71.0691 15.975 71.3292 15.1599 70.9401C14.1448 70.4578 13.7627 69.2707 14.187 68.2303C15.4131 65.2115 19.7578 62.6906 25.7173 61.4924C26.7746 61.2723 27.8586 61.1456 28.9581 61.0923C29.9754 61.0434 31.0083 61.0567 32.0456 61.1167C34.2979 61.2479 36.6369 61.608 38.9914 62.0926C43.7537 63.0752 48.6892 64.5824 54.1246 66.1629C58.1228 67.3278 62.1943 68.4637 66.2169 69.2685C66.1059 66.1251 65.746 65.2937 64.6954 64.8025C66.8988 64.8025 69.7664 62.864 70.3639 61.2723V69.9731C72.6407 70.2821 74.9952 70.4644 77.3475 70.4111C81.9565 70.291 86.2146 69.3907 90.1995 66.7542C91.7032 65.6805 92.9227 64.3979 93.8445 62.9685C95.3105 60.6966 95.8592 58.3402 95.8792 56.3329C95.8769 54.4567 95.566 51.8113 92.6228 50.1107C91.5766 49.5216 90.5282 49.097 90.8814 47.3742C91.0813 46.7651 91.5433 46.296 92.1186 46.0782C92.3718 45.9848 92.6228 45.9426 92.8694 45.9493C93.2803 45.9582 93.6846 46.1004 94.0844 46.3516Z" fill="white" stroke="white" stroke-miterlimit="10"/>
<path d="M112.943 103.503H95.0462V96.6646C94.9929 96.8313 94.9351 96.9981 94.8729 97.1715C94.462 98.283 93.8378 99.3989 92.9782 100.395C92.1164 101.393 91.1124 102.162 90.044 102.689C88.7823 103.314 87.6206 103.511 86.7766 103.558C86.63 103.565 86.4656 103.574 86.2923 103.58C85.0951 103.629 83.9445 103.549 82.694 103.249C81.5412 102.949 80.3372 102.418 79.2155 101.564C76.3613 99.3589 75.2617 96.489 75.2617 92.0697V86.3032C75.2617 80.0189 75.0729 78.794 73.6913 78.1449C75.8948 78.1449 78.7646 76.2086 79.3621 74.617V92.2742C79.3599 97.3982 80.9059 102.767 86.7322 102.767C87.4985 102.724 88.5558 102.567 89.7241 102.022C90.7126 101.562 91.661 100.879 92.4918 99.9658C93.3225 99.0543 93.9378 98.0206 94.3554 96.9736C94.8441 95.7399 94.9973 94.6461 95.0306 93.8881L95.0484 86.3055C95.0484 80.0211 94.8596 78.7962 93.478 78.1471C95.6815 78.1471 98.5513 76.2086 99.1488 74.6192V98.4497C99.1488 99.5278 99.2865 100.375 99.522 101.046C99.984 102.371 101.266 103.231 102.667 103.231C104.069 103.231 105.348 102.371 105.812 101.046C106.048 100.373 106.188 99.5256 106.188 98.4475V70.9979C106.188 64.7135 106.001 63.4887 104.62 62.8396C106.823 62.8396 109.691 60.9011 110.288 59.3117V98.4497C110.288 101.72 111.565 102.856 112.945 103.505L112.943 103.503Z" fill="white" stroke="white" stroke-miterlimit="10"/>
<path d="M138.995 74.6147H135.108C136.488 75.2616 136.054 77.0645 135.19 79.6965L127.767 102.344C127.734 102.449 127.585 102.449 127.549 102.344L120.115 79.6965C119.251 77.0645 119.702 75.2616 121.079 74.6147H112.556C113.935 75.2616 114.684 76.3042 115.79 79.6698L123.1 101.944C123.16 102.129 123.247 102.304 123.36 102.462C123.398 102.516 123.438 102.569 123.476 102.622C123.582 102.767 123.707 102.898 123.849 103.011C124.047 103.169 124.251 103.316 124.446 103.476C124.566 103.574 124.684 103.671 124.799 103.772C124.875 103.836 124.957 103.896 125.039 103.952C125.983 104.61 126.428 105.886 125.892 107.053C123.582 112.079 121.05 115.516 118.556 117.732C115.499 120.448 112.507 121.34 110.015 121.115C107.123 120.749 105.208 119.237 105.208 117.296C105.208 115.847 105.832 114.98 106.439 113.971C106.814 113.299 107.207 112.755 107.17 111.983C107.11 110.747 105.984 109.887 104.764 110.087C103.545 110.287 103.114 111.416 102.827 112.659C101.781 117.265 105.315 121.118 109.968 121.618C112.616 121.856 115.752 120.9 118.891 118.11C121.805 115.52 124.726 111.352 127.301 105.074C127.732 104.123 127.96 103.367 128.296 102.344L129.891 97.4782L135.728 79.6698C136.832 76.3042 137.614 75.2616 138.993 74.6147H138.995Z" fill="white" stroke="white" stroke-miterlimit="10"/>
<path d="M139.751 84.4915C139.284 82.7976 139.873 80.0455 142.067 77.7203C143.973 75.7018 146.61 74.6147 149.79 74.6147C153.218 74.5947 157.318 75.9597 159.051 79.6521C159.788 81.2126 160.035 83.2266 160.035 85.2407V98.4452C160.035 101.717 161.312 102.853 162.691 103.5H160.035C157.769 103.5 155.934 101.662 155.934 99.3967V98.7031C155.877 98.8498 155.812 98.9965 155.739 99.1455C155.33 99.9835 154.73 100.755 153.935 101.431C153.138 102.106 152.245 102.6 151.379 102.958C150.781 103.205 150.23 103.374 149.777 103.498C149.306 103.627 148.846 103.725 148.418 103.8C147.356 103.985 146.29 104.056 145.31 104C145.035 103.985 144.757 103.96 144.473 103.923C143.731 103.823 142.974 103.671 142.243 103.411C139.686 102.482 138.336 100.53 138.287 97.6894C138.282 96.3956 138.56 95.233 139.126 94.1304C139.142 94.1015 139.157 94.0726 139.173 94.0437C139.702 93.0456 140.517 92.1986 141.574 91.4962C142.46 90.9048 143.464 90.4447 144.568 90.0023C144.815 89.9045 145.064 89.8067 145.317 89.7111C146.061 89.4265 146.705 89.1887 147.696 88.8419C148.615 88.5196 149.79 88.1194 150.759 87.7437C151.75 87.3614 152.647 86.9613 153.409 86.5033C153.809 86.2632 154.153 86.0165 154.451 85.7586C154.779 85.4741 155.037 85.1873 155.237 84.9005C155.483 84.5471 155.634 84.2092 155.73 83.9024C155.848 83.5245 155.879 83.1977 155.892 83.0332C155.945 82.3508 155.837 81.446 155.739 80.7947C155.601 79.881 155.321 78.974 154.837 78.136C154.357 77.3068 153.706 76.611 152.896 76.0886C151.863 75.4395 150.841 75.1149 149.79 75.1149C147.525 75.1149 144.526 76.1553 143.771 78.0137C143.049 79.7921 143.353 80.8258 143.562 82.1418C143.693 82.9665 143.844 83.9513 143.469 84.7538C143.129 85.4029 142.449 85.8475 141.665 85.8475C140.781 85.8475 139.97 85.3007 139.748 84.4937L139.751 84.4915ZM155.617 85.1673C155.388 85.4852 155.101 85.7942 154.744 86.0965C154.422 86.3699 154.055 86.6278 153.64 86.879C152.847 87.3569 151.932 87.7749 150.941 88.1861C149.919 88.6107 148.862 89.0153 147.925 89.4154C147.032 89.7978 146.305 90.1468 145.701 90.5003C145.475 90.6314 145.259 90.767 145.053 90.9071C144.113 91.5451 143.424 92.2342 142.94 92.9389C142.376 93.7636 142.145 94.5261 141.998 95.1863C141.994 95.2063 141.99 95.2263 141.985 95.2463C141.561 97.3693 141.998 99.3811 143.515 101.126C143.911 101.493 144.397 101.824 144.964 102.069C145.177 102.162 145.395 102.244 145.615 102.318C146.412 102.584 147.325 102.751 148.327 102.749C148.724 102.749 149.153 102.72 149.604 102.653C150.035 102.591 150.561 102.476 151.13 102.282C151.956 102.002 152.809 101.577 153.569 100.977C154.324 100.379 154.895 99.679 155.284 98.9165C156.025 97.4049 155.985 95.1908 155.939 93.1834V84.6493C155.854 84.8116 155.739 84.9939 155.619 85.1651L155.617 85.1673Z" fill="white" stroke="white" stroke-miterlimit="10"/>
<path d="M179.506 110.189H265.041" stroke="white" stroke-miterlimit="10"/>
<path d="M305.556 110.189H360.505" stroke="white" stroke-miterlimit="10"/>
<path d="M266.132 66.3474L266.316 66.9899C266.616 68.0369 267.435 68.8572 268.482 69.1573L269.124 69.3418L268.482 69.5263C267.435 69.8264 266.616 70.6467 266.316 71.6937L266.132 72.3362L265.947 71.6937C265.647 70.6467 264.828 69.8264 263.782 69.5263L263.14 69.3418L263.782 69.1573C264.828 68.8572 265.647 68.0369 265.947 66.9899L266.132 66.3474Z" fill="white" stroke="white" stroke-width="0.5" stroke-miterlimit="10"/>
<path d="M357.742 79.2163V98.4052C357.742 101.669 359.014 102.804 360.391 103.449H351C352.377 102.804 353.65 101.671 353.65 98.4052V86.2877C353.65 80.0166 353.461 78.794 352.086 78.1471C354.285 78.1471 357.146 76.2131 357.742 74.6236V79.2141V79.2163Z" fill="white" stroke="white" stroke-width="0.5" stroke-miterlimit="10"/>
<path d="M355.105 66.3474L355.289 66.9899C355.589 68.0369 356.409 68.8572 357.455 69.1573L358.097 69.3418L357.455 69.5263C356.409 69.8264 355.589 70.6467 355.289 71.6937L355.105 72.3362L354.921 71.6937C354.621 70.6467 353.801 69.8264 352.755 69.5263L352.113 69.3418L352.755 69.1573C353.801 68.8572 354.621 68.0369 354.921 66.9899L355.105 66.3474Z" fill="white" stroke="white" stroke-width="0.5" stroke-miterlimit="10"/>
</svg>
